<svg xmlns="http://www.w3.org/2000/svg" width="18" height="18"><path fill="none" d="M0 0h18v18H0z"/><path fill="#f8cb61" d="M9.173 1.349a7.479 7.479 0 107.479 7.479 7.482 7.482 0 00-7.479-7.479zm.658 11.787v.927H8.522v-.965a3.019 3.019 0 01-2.258-2.213l1.234-.5a1.975 1.975 0 001.796 1.564c.7 0 1.481-.359 1.481-1.2 0-.718-.524-1.092-1.705-1.518-.824-.298-2.507-.782-2.507-2.482a2.3 2.3 0 011.959-2.214v-.942h1.309v.927a2.562 2.562 0 011.989 1.668l-1.182.5a1.445 1.445 0 00-1.421-1c-.524 0-1.354.277-1.354 1.04 0 .71.643.98 1.974 1.421 1.795.621 2.251 1.533 2.251 2.58a2.479 2.479 0 01-2.257 2.407z"/></svg>